<svg width="33" height="50" fill="none" xmlns="http://www.w3.org/2000/svg"><g clip-path="url(#a)"><path d="M2.85 28.5S6.5 48 7 48.5c.5.5 19 .5 19.5 0s3.774-20 3.774-20m-27.425 0S1 22.5 1.5 22s29.5-.5 30 0-1.226 6.5-1.226 6.5m-27.425 0s4.651 7 13.151 7 14.274-7 14.274-7M5 1.5h22c.5 0 1.5.5 1.5 1.5S27 5.5 27 6s1.5 2 2 3 0 2-.5 2.5-1 1-2 1-1.5-2-3-2.5-4.5 1-4.5 2v4c0 1-1.5 1.5-2.5 1.5S14 17 14 16v-4c0-1.234-3-2.5-4-2s-2.5 2.5-3.5 2.5-1.5-.5-2-1S4 9.5 4 9s1.5-2.5 1.5-3S4 3.5 4 3s.5-1.5 1-1.5Z" stroke="#FFA5BA" stroke-width="3"/></g><defs><clipPath id="a"><path fill="#fff" d="M0 0h33v50H0z"/></clipPath></defs></svg>