<svg width="50" height="50" fill="none" xmlns="http://www.w3.org/2000/svg"><path d="M2 18s2 15.5 18.5 15.5S37 18 37 18M2 18l6 30.5h23.5l1-3.5M2 18h1m34 0-3 16.5M37 18h-1.5m-3 27s-2-2.5-2-6 3.5-4.5 3.5-4.5M32.5 45s1.5 1.5 3 2.5 7.5 1 9 0 4-5 4-7.5-1-4.5-3.5-5.5-5.5 1.5-5.5 1.5M34 34.5c2.5-.5 5.5 1.5 5.5 1.5m0 0s-1-5.5 2.5-7.5M3 18s-1-3 0-5 2-2.5 3-2.5h4M3 18h18m-11-7.5s.5-2 1-3 1-2 4-2S20.5 9 20.5 9M10 10.5S6 5.5 7.5 2m13 7c3-1.5 6 1.5 6 1.5m-6-1.5c1 3.5.5 9 .5 9m5.5-7.5s4-2 5.5-2 3.5 1 4 3-.5 6.5-.5 6.5m-9-7.5S25 5 29 2m6.5 16H21" stroke="#FFA5BA" stroke-width="3"/></svg>